<svg width="30" height="30" viewBox="0 0 30 30" fill="none" xmlns="http://www.w3.org/2000/svg">
<g id="Group 139">
<g id="Group">
<path id="Vector" d="M6 6.08386V10.5459V10.6359V10.5459C6 11.8199 6.55588 12.9479 7.41776 13.678C7.83918 14.035 8.11765 14.517 8.11765 15.052V22.5001C8.11765 23.3281 8.82918 24.0001 9.70588 24.0001C10.5826 24.0001 11.2941 23.3281 11.2941 22.5001V15.052C11.2941 14.517 11.5726 14.035 11.994 13.678C12.8559 12.9479 13.4118 11.8199 13.4118 10.5459V6.08386V10.5459" stroke="#8BAA36" stroke-width="1.8" stroke-linecap="round" stroke-linejoin="round"/>
<path id="Vector_2" d="M9.70508 11.0001V6" stroke="#8BAA36" stroke-width="1.8" stroke-linecap="round" stroke-linejoin="round"/>
<path id="Vector_3" d="M23.9992 7.05153C23.9992 6.49952 23.5248 6.05151 22.9404 6.05151H21.8815C20.1271 6.05151 18.7051 7.39453 18.7051 9.05155V15.0516C18.7051 16.3556 19.5913 17.4546 20.8227 17.8677V22.4997C20.8227 23.3277 21.5343 23.9997 22.411 23.9997C23.2877 23.9997 23.9992 23.3277 23.9992 22.4997V18.0517V7.05153Z" stroke="#8BAA36" stroke-width="1.8" stroke-linecap="round" stroke-linejoin="round"/>
</g>
</g>
</svg>
