<svg width="12" height="14" viewBox="0 0 12 14" fill="none" xmlns="http://www.w3.org/2000/svg">
    <path
        d="M8.33333 3.49999V3.03332C8.33333 2.37993 8.33333 2.05323 8.20617 1.80367C8.09432 1.58415 7.91584 1.40567 7.69632 1.29382C7.44676 1.16666 7.12006 1.16666 6.46667 1.16666H5.53333C4.87994 1.16666 4.55324 1.16666 4.30368 1.29382C4.08416 1.40567 3.90568 1.58415 3.79383 1.80367C3.66667 2.05323 3.66667 2.37993 3.66667 3.03332V3.49999M4.83333 6.70832V9.62499M7.16667 6.70832V9.62499M0.75 3.49999H11.25M10.0833 3.49999V10.0333C10.0833 11.0134 10.0833 11.5035 9.89259 11.8778C9.72482 12.2071 9.4571 12.4748 9.12782 12.6426C8.75347 12.8333 8.26342 12.8333 7.28333 12.8333H4.71667C3.73657 12.8333 3.24653 12.8333 2.87218 12.6426C2.5429 12.4748 2.27518 12.2071 2.10741 11.8778C1.91667 11.5035 1.91667 11.0134 1.91667 10.0333V3.49999"
        stroke="#FAFAFA" stroke-width="1.2" stroke-linecap="round" stroke-linejoin="round" />
</svg>